<svg width="1024" height="1024" viewBox="0 0 1024 1024" fill="none" xmlns="http://www.w3.org/2000/svg">
  <filter id="kamicode-edge" x="232" y="306" width="560" height="386" filterUnits="userSpaceOnUse" color-interpolation-filters="sRGB">
    <feDropShadow dx="0" dy="1" stdDeviation="0.7" flood-color="#5f6666" flood-opacity="0.28"/>
    <feDropShadow dx="0" dy="-1" stdDeviation="0.55" flood-color="#ffffff" flood-opacity="0.42"/>
  </filter>
  <g filter="url(#kamicode-edge)">
    <path d="M285 577C389 543 487 473 633 374C654 360 669 353 674 358C679 364 667 377 646 394C514 502 396 567 301 590C287 593 276 590 285 577Z" fill="#ffffff"/>
    <path d="M374 532C422 491 436 432 438 380C439 371 446 365 459 360C478 353 489 358 488 368C480 435 449 491 374 532Z" fill="#ffffff"/>
    <path d="M467 526C511 504 548 520 585 556C622 592 651 611 692 623C682 634 653 640 623 631C588 621 559 593 526 560C503 537 482 526 467 526Z" fill="#ffffff"/>
  </g>
</svg>
